<svg width="48" height="48" viewBox="0 0 48 48" fill="none" xmlns="http://www.w3.org/2000/svg">
<path d="M35.25 3C37.0156 3 38.6719 3.32812 40.2188 3.98438C41.7656 4.64062 43.1094 5.54688 44.25 6.70312C45.3906 7.85938 46.2969 9.21094 46.9688 10.7578C47.6406 12.3047 47.9766 13.9609 47.9766 15.7266C47.9766 16.6328 47.8828 17.5312 47.6953 18.4219C47.5078 19.3125 47.2266 20.1719 46.8516 21H36L31.5 16.3125L24 23.8125L13.5 13.3125L6 21H1.14844C0.773438 20.1719 0.492188 19.3125 0.304688 18.4219C0.117188 17.5312 0.0234375 16.6328 0.0234375 15.7266C0.0234375 13.9609 0.351562 12.3047 1.00781 10.7578C1.66406 9.21094 2.57031 7.86719 3.72656 6.72656C4.88281 5.58594 6.23438 4.67969 7.78125 4.00781C9.32812 3.33594 10.9844 3 12.75 3C14.4531 3 16.0781 3.32031 17.625 3.96094C19.1719 4.60156 20.5547 5.52344 21.7734 6.72656L24 8.97656L26.2266 6.72656C27.4297 5.52344 28.8047 4.60156 30.3516 3.96094C31.8984 3.32031 33.5312 3 35.25 3ZM33 24H44.9531L44.625 24.375C44.5156 24.5 44.3984 24.6328 44.2734 24.7734L24 45.0234L3.72656 24.7734C3.60156 24.6484 3.48438 24.5234 3.375 24.3984C3.26562 24.2734 3.15625 24.1406 3.04688 24H9L13.5 19.6875L24 30.1875L31.5 22.6875L33 24Z" fill="#F95757"/>
</svg>
