<svg width="48" height="48" viewBox="0 0 48 48" fill="none" xmlns="http://www.w3.org/2000/svg">
<path fill-rule="evenodd" clip-rule="evenodd" d="M21.6712 6.79998C22.5362 6.27603 23.5283 5.99902 24.5397 5.99902C25.551 5.99902 26.5431 6.27603 27.4082 6.79998L29.4452 8.04598C32.3032 9.79298 35.5582 10.182 38.8282 10.574C39.8852 10.701 40.9432 10.827 41.9902 11C41.9902 11 42.0131 12.834 41.9892 13.666L41.7802 20.817C41.6002 26.95 38.8732 32.765 34.1952 36.991C31.9882 38.984 29.7052 40.785 27.0822 42.281C26.3092 42.7183 25.4425 42.9635 24.5549 42.9961C23.6674 43.0286 22.7851 42.8475 21.9822 42.468C18.9532 41.028 16.2712 39.202 13.8222 36.991C9.14415 32.765 6.41715 26.95 6.23815 20.817L6.03015 13.689C6.00515 12.844 6.03015 11 6.03015 11C6.88015 10.9 7.74615 10.817 8.61915 10.734C12.4722 10.368 16.4532 9.98998 19.7192 7.99398L21.6722 6.79998H21.6712ZM22.0002 22V15H26.0002V22H33.0002V26H26.0002V33H22.0002V26H15.0002V22H22.0002Z" fill="#00E709"/>
</svg>
